<mxfile host="app.diagrams.net" agent="Mozilla/5.0 (Windows NT 10.0; Win64; x64) AppleWebKit/537.36 (KHTML, like Gecko) Chrome/131.0.0.0 Safari/537.36" version="25.0.0">
  <diagram name="PÃ¡gina-1" id="LbAm69sMUvd55U5JB9R9">
    <mxGraphModel dx="2261" dy="746" grid="1" gridSize="10" guides="1" tooltips="1" connect="1" arrows="1" fold="1" page="1" pageScale="1" pageWidth="827" pageHeight="1169" math="0" shadow="0">
      <root>
        <mxCell id="0" />
        <mxCell id="1" parent="0" />
        <mxCell id="LwXMxSfR97O7_E-k2cdg-1" value="Sistema de gestion&lt;div&gt;para hilet&lt;/div&gt;" style="ellipse;whiteSpace=wrap;html=1;aspect=fixed;" parent="1" vertex="1">
          <mxGeometry x="310" y="126" width="204" height="204" as="geometry" />
        </mxCell>
        <mxCell id="LwXMxSfR97O7_E-k2cdg-2" value="Alumnos" style="rounded=1;whiteSpace=wrap;html=1;" parent="1" vertex="1">
          <mxGeometry x="-120" y="197" width="200" height="62" as="geometry" />
        </mxCell>
        <mxCell id="LwXMxSfR97O7_E-k2cdg-3" value="Profesores" style="rounded=1;whiteSpace=wrap;html=1;" parent="1" vertex="1">
          <mxGeometry x="240" y="460" width="320" height="70" as="geometry" />
        </mxCell>
        <mxCell id="LwXMxSfR97O7_E-k2cdg-4" value="Personal" style="rounded=1;whiteSpace=wrap;html=1;" parent="1" vertex="1">
          <mxGeometry x="770" y="197" width="200" height="62" as="geometry" />
        </mxCell>
        <mxCell id="LwXMxSfR97O7_E-k2cdg-5" value="" style="endArrow=classic;html=1;rounded=0;exitX=1;exitY=0.25;exitDx=0;exitDy=0;entryX=0.023;entryY=0.425;entryDx=0;entryDy=0;entryPerimeter=0;" parent="1" source="LwXMxSfR97O7_E-k2cdg-2" target="LwXMxSfR97O7_E-k2cdg-1" edge="1">
          <mxGeometry width="50" height="50" relative="1" as="geometry">
            <mxPoint x="280" y="300" as="sourcePoint" />
            <mxPoint x="330" y="250" as="targetPoint" />
          </mxGeometry>
        </mxCell>
        <mxCell id="LwXMxSfR97O7_E-k2cdg-6" value="Informacion personal" style="text;html=1;align=center;verticalAlign=middle;resizable=0;points=[];autosize=1;strokeColor=none;fillColor=none;" parent="1" vertex="1">
          <mxGeometry x="120" y="167" width="140" height="30" as="geometry" />
        </mxCell>
        <mxCell id="LwXMxSfR97O7_E-k2cdg-8" value="" style="endArrow=classic;html=1;rounded=0;exitX=0;exitY=0.25;exitDx=0;exitDy=0;entryX=0.971;entryY=0.429;entryDx=0;entryDy=0;entryPerimeter=0;" parent="1" source="LwXMxSfR97O7_E-k2cdg-4" target="LwXMxSfR97O7_E-k2cdg-1" edge="1">
          <mxGeometry width="50" height="50" relative="1" as="geometry">
            <mxPoint x="550" y="290" as="sourcePoint" />
            <mxPoint x="600" y="240" as="targetPoint" />
          </mxGeometry>
        </mxCell>
        <mxCell id="LwXMxSfR97O7_E-k2cdg-9" value="Informacion personal" style="text;html=1;align=center;verticalAlign=middle;resizable=0;points=[];autosize=1;strokeColor=none;fillColor=none;" parent="1" vertex="1">
          <mxGeometry x="570" y="180" width="140" height="30" as="geometry" />
        </mxCell>
        <mxCell id="LwXMxSfR97O7_E-k2cdg-11" value="Informacion&amp;nbsp;&lt;div&gt;personal&lt;/div&gt;" style="text;html=1;align=center;verticalAlign=middle;resizable=0;points=[];autosize=1;strokeColor=none;fillColor=none;" parent="1" vertex="1">
          <mxGeometry x="500" y="380" width="90" height="40" as="geometry" />
        </mxCell>
        <mxCell id="LwXMxSfR97O7_E-k2cdg-13" value="Estadisticas" style="text;html=1;align=center;verticalAlign=middle;resizable=0;points=[];autosize=1;strokeColor=none;fillColor=none;" parent="1" vertex="1">
          <mxGeometry x="324" y="385" width="90" height="30" as="geometry" />
        </mxCell>
        <mxCell id="LwXMxSfR97O7_E-k2cdg-14" value="" style="endArrow=classic;html=1;rounded=0;exitX=0.988;exitY=0.572;exitDx=0;exitDy=0;exitPerimeter=0;entryX=0;entryY=0.75;entryDx=0;entryDy=0;" parent="1" source="LwXMxSfR97O7_E-k2cdg-1" target="LwXMxSfR97O7_E-k2cdg-4" edge="1">
          <mxGeometry width="50" height="50" relative="1" as="geometry">
            <mxPoint x="520" y="270" as="sourcePoint" />
            <mxPoint x="760" y="240" as="targetPoint" />
          </mxGeometry>
        </mxCell>
        <mxCell id="LwXMxSfR97O7_E-k2cdg-15" value="Estadisticas" style="text;html=1;align=center;verticalAlign=middle;resizable=0;points=[];autosize=1;strokeColor=none;fillColor=none;" parent="1" vertex="1">
          <mxGeometry x="595" y="240" width="90" height="30" as="geometry" />
        </mxCell>
        <mxCell id="LwXMxSfR97O7_E-k2cdg-17" value="Estadisticas" style="text;html=1;align=center;verticalAlign=middle;resizable=0;points=[];autosize=1;strokeColor=none;fillColor=none;" parent="1" vertex="1">
          <mxGeometry x="145" y="250" width="90" height="30" as="geometry" />
        </mxCell>
        <mxCell id="gNVlSgpbPfBrjMrHK7Xc-3" value="" style="endArrow=classic;html=1;rounded=0;entryX=0.086;entryY=0.786;entryDx=0;entryDy=0;entryPerimeter=0;edgeStyle=elbowEdgeStyle;" edge="1" parent="1" target="LwXMxSfR97O7_E-k2cdg-1">
          <mxGeometry width="50" height="50" relative="1" as="geometry">
            <mxPoint x="310" y="460" as="sourcePoint" />
            <mxPoint x="360" y="330" as="targetPoint" />
          </mxGeometry>
        </mxCell>
        <mxCell id="gNVlSgpbPfBrjMrHK7Xc-5" value="" style="endArrow=classic;html=1;rounded=0;" edge="1" parent="1">
          <mxGeometry width="50" height="50" relative="1" as="geometry">
            <mxPoint x="310" y="240" as="sourcePoint" />
            <mxPoint x="80" y="240" as="targetPoint" />
          </mxGeometry>
        </mxCell>
        <mxCell id="gNVlSgpbPfBrjMrHK7Xc-6" value="Notas" style="text;html=1;align=center;verticalAlign=middle;resizable=0;points=[];autosize=1;strokeColor=none;fillColor=none;" vertex="1" parent="1">
          <mxGeometry x="250" y="385" width="50" height="30" as="geometry" />
        </mxCell>
        <mxCell id="gNVlSgpbPfBrjMrHK7Xc-7" value="" style="endArrow=classic;html=1;rounded=0;exitX=0.441;exitY=1.01;exitDx=0;exitDy=0;exitPerimeter=0;" edge="1" parent="1" source="LwXMxSfR97O7_E-k2cdg-1" target="LwXMxSfR97O7_E-k2cdg-3">
          <mxGeometry width="50" height="50" relative="1" as="geometry">
            <mxPoint x="400" y="350" as="sourcePoint" />
            <mxPoint x="460" y="360" as="targetPoint" />
          </mxGeometry>
        </mxCell>
        <mxCell id="gNVlSgpbPfBrjMrHK7Xc-8" value="" style="endArrow=classic;html=1;rounded=0;exitX=0.75;exitY=0;exitDx=0;exitDy=0;entryX=0.824;entryY=0.882;entryDx=0;entryDy=0;entryPerimeter=0;" edge="1" parent="1" source="LwXMxSfR97O7_E-k2cdg-3" target="LwXMxSfR97O7_E-k2cdg-1">
          <mxGeometry width="50" height="50" relative="1" as="geometry">
            <mxPoint x="440" y="420" as="sourcePoint" />
            <mxPoint x="490" y="370" as="targetPoint" />
          </mxGeometry>
        </mxCell>
      </root>
    </mxGraphModel>
  </diagram>
</mxfile>
